<svg xmlns="http://www.w3.org/2000/svg" viewBox="24 8 92 68" width="20" height="15">
  <!-- WeddingClick Elegant Editorial v1: floral-heart fleuron ornament (the
       Task029 "❧" role, used between family rules and in the Closing).
       Original repository-authored vector geometry; see
       templates/wedding/elegant-editorial/v1/PROVENANCE.md.
       Default colour is the palette moss #47593f. All marks share one colour,
       so it can also be used as a CSS mask and tinted by CSS (e.g. gold in
       the Closing band). -->
  <!-- Heart-shaped leaf pointing right, with a hairline vein cut out. -->
  <path fill="#47593f" fill-rule="evenodd"
        d="M112 40 C98 28 86 12 72 12 C62 12 56 20 56 28 C56 33 58 37 62 40 C58 43 56 47 56 52 C56 60 62 68 72 68 C86 68 98 52 112 40 Z
           M66 40 Q86 38.2 104 40 Q86 41.8 66 40 Z"/>
  <!-- Curling stem. -->
  <path fill="none" stroke="#47593f" stroke-width="3.4" stroke-linecap="round"
        d="M62 40 C48 40 36 44 30 54 C25 62 28 72 36 72 C43 72 45 64 40 60 C37 58 33 60 34 64"/>
</svg>
